<svg width="15" height="15" viewBox="0 0 15 15" fill="none" xmlns="http://www.w3.org/2000/svg">
<g clip-path="url(#clip0_2004_1157)">
<path d="M7.5 0C6.01664 0 4.56659 0.439867 3.33323 1.26398C2.09986 2.08809 1.13856 3.25943 0.570907 4.62987C0.0032495 6.00032 -0.145275 7.50832 0.144114 8.96318C0.433503 10.418 1.14781 11.7544 2.1967 12.8033C3.2456 13.8522 4.58197 14.5665 6.03683 14.8559C7.49168 15.1453 8.99968 14.9967 10.3701 14.4291C11.7406 13.8614 12.9119 12.9001 13.736 11.6668C14.5601 10.4334 15 8.98336 15 7.5C14.9978 5.51155 14.2069 3.60516 12.8009 2.19911C11.3948 0.793061 9.48845 0.0021837 7.5 0ZM7.5 14.4C6.13531 14.4 4.80127 13.9953 3.66657 13.2371C2.53187 12.479 1.64748 11.4013 1.12523 10.1405C0.60299 8.8797 0.466347 7.49234 0.732585 6.15388C0.998823 4.81541 1.65598 3.58594 2.62097 2.62096C3.58595 1.65598 4.81541 0.998819 6.15388 0.732581C7.49235 0.466343 8.87971 0.602986 10.1405 1.12523C11.4013 1.64748 12.479 2.53187 13.2371 3.66656C13.9953 4.80126 14.4 6.13531 14.4 7.5C14.398 9.32938 13.6704 11.0833 12.3768 12.3768C11.0833 13.6704 9.32939 14.398 7.5 14.4ZM12 7.5C12 7.57956 11.9684 7.65587 11.9121 7.71213C11.8559 7.76839 11.7796 7.8 11.7 7.8H7.5C7.42044 7.8 7.34413 7.76839 7.28787 7.71213C7.23161 7.65587 7.2 7.57956 7.2 7.5V3.3C7.2 3.22043 7.23161 3.14413 7.28787 3.08787C7.34413 3.03161 7.42044 3 7.5 3C7.57957 3 7.65587 3.03161 7.71213 3.08787C7.76839 3.14413 7.8 3.22043 7.8 3.3V7.2H11.7C11.7796 7.2 11.8559 7.23161 11.9121 7.28787C11.9684 7.34413 12 7.42043 12 7.5Z" fill="#2400FF"/>
</g>
<defs>
<clipPath id="clip0_2004_1157">
<rect width="15" height="15" fill="white"/>
</clipPath>
</defs>
</svg>
