<svg width="60" height="50" viewBox="0 0 60 50" fill="none" xmlns="http://www.w3.org/2000/svg">
<path d="M6.66667 50C4.83333 50 3.26444 49.4565 1.96 48.3694C0.655556 47.2824 0.00222222 45.9741 0 44.4444V5.55555C0 4.02778 0.653333 2.72037 1.96 1.63333C3.26667 0.546296 4.83555 0.00185185 6.66667 0H33.3333C34.2778 0 35.07 0.266667 35.71 0.8C36.35 1.33333 36.6689 1.99259 36.6667 2.77778C36.6667 3.56481 36.3467 4.225 35.7067 4.75833C35.0667 5.29167 34.2755 5.55741 33.3333 5.55555H6.66667V44.4444H53.3333V22.2222C53.3333 21.4352 53.6533 20.7759 54.2933 20.2444C54.9333 19.713 55.7244 19.4463 56.6667 19.4444C57.6111 19.4444 58.4033 19.7111 59.0433 20.2444C59.6833 20.7778 60.0022 21.437 60 22.2222V44.4444C60 45.9722 59.3478 47.2806 58.0433 48.3694C56.7389 49.4583 55.1689 50.0018 53.3333 50H6.66667ZM46.6667 11.1111H43.3333C42.3889 11.1111 41.5978 10.8444 40.96 10.3111C40.3222 9.77778 40.0022 9.11852 40 8.33333C40 7.5463 40.32 6.88704 40.96 6.35556C41.6 5.82407 42.3911 5.55741 43.3333 5.55555H46.6667V2.77778C46.6667 1.99074 46.9867 1.33148 47.6267 0.8C48.2667 0.268519 49.0578 0.00185185 50 0C50.9444 0 51.7367 0.266667 52.3767 0.8C53.0167 1.33333 53.3355 1.99259 53.3333 2.77778V5.55555H56.6667C57.6111 5.55555 58.4033 5.82222 59.0433 6.35556C59.6833 6.88889 60.0022 7.54815 60 8.33333C60 9.12037 59.68 9.78055 59.04 10.3139C58.4 10.8472 57.6089 11.113 56.6667 11.1111H53.3333V13.8889C53.3333 14.6759 53.0133 15.3361 52.3733 15.8694C51.7333 16.4028 50.9422 16.6685 50 16.6667C49.0555 16.6667 48.2644 16.4 47.6267 15.8667C46.9889 15.3333 46.6689 14.6741 46.6667 13.8889V11.1111ZM27.5 36.1111L21.3333 29.2361C21 28.8657 20.5556 28.6806 20 28.6806C19.4444 28.6806 19 28.8657 18.6667 29.2361L12 36.6667C11.5556 37.1296 11.5 37.6157 11.8333 38.125C12.1667 38.6343 12.6667 38.8889 13.3333 38.8889H46.6667C47.3333 38.8889 47.8333 38.6343 48.1667 38.125C48.5 37.6157 48.4444 37.1296 48 36.6667L38.8333 26.4583C38.5 26.088 38.0555 25.9028 37.5 25.9028C36.9444 25.9028 36.5 26.088 36.1667 26.4583L27.5 36.1111Z" fill="#919191"/>
</svg>
