<svg width="20" height="20" viewBox="0 0 20 20" fill="none" xmlns="http://www.w3.org/2000/svg">
<g clip-path="url(#clip0_0_217)">
<path d="M14 2.8855H17C17.5304 2.8855 18.0391 3.07783 18.4142 3.42018C18.7893 3.76253 19 4.22686 19 4.71101V5.62377M14 17.4896H17C17.5304 17.4896 18.0391 17.2973 18.4142 16.9549C18.7893 16.6126 19 16.1483 19 15.6641V14.7513M14.001 10.1876H19.001M19.001 10.1876L17.001 8.36205M19.001 10.1876L17.001 12.0131M2.425 16.9675L8.425 18.6105C8.72368 18.6923 9.03919 18.7093 9.34633 18.66C9.65347 18.6107 9.94372 18.4965 10.1939 18.3266C10.4441 18.1567 10.6473 17.9357 10.7872 17.6814C10.9272 17.427 11.0001 17.1463 11 16.8616V3.51348C11.0001 3.22883 10.9272 2.94812 10.7872 2.69376C10.6473 2.4394 10.4441 2.21843 10.1939 2.04851C9.94372 1.87859 9.65347 1.76443 9.34633 1.71514C9.03919 1.66585 8.72368 1.6828 8.425 1.76463L2.425 3.4076C2.01302 3.52047 1.65189 3.75158 1.39519 4.06661C1.13849 4.38165 0.999906 4.76383 1 5.15644V15.2187C0.999906 15.6113 1.13849 15.9935 1.39519 16.3085C1.65189 16.6235 2.01302 16.8546 2.425 16.9675Z" stroke="#699BF7" stroke-width="2" stroke-linecap="round" stroke-linejoin="round"/>
</g>
<defs>
<clipPath id="clip0_0_217">
<rect width="20" height="20" fill="white"/>
</clipPath>
</defs>
</svg>
