<svg width="21" height="17" viewBox="0 0 21 17" fill="none" xmlns="http://www.w3.org/2000/svg">
<g clip-path="url(#clip0_5_1377)">
<path d="M21.4805 5.94229V14.965C21.4805 15.465 21.2969 15.8931 20.9297 16.2491C20.5625 16.6052 20.1211 16.7832 19.6055 16.7832H2.35547C1.83984 16.7832 1.39844 16.6052 1.03125 16.2491C0.664062 15.8931 0.480469 15.465 0.480469 14.965V5.94229C0.824219 6.31351 1.21875 6.64305 1.66406 6.93093C4.49219 8.79457 6.43359 10.1014 7.48828 10.8514C7.93359 11.1696 8.29492 11.4177 8.57227 11.5957C8.84961 11.7737 9.21875 11.9556 9.67969 12.1412C10.1406 12.3268 10.5703 12.4196 10.9688 12.4196H10.9805H10.9922C11.3906 12.4196 11.8203 12.3268 12.2812 12.1412C12.7422 11.9556 13.1113 11.7737 13.3887 11.5957C13.666 11.4177 14.0273 11.1696 14.4727 10.8514C15.8008 9.91957 17.7461 8.61275 20.3086 6.93093C20.7539 6.63548 21.1445 6.30593 21.4805 5.94229ZM21.4805 2.60138C21.4805 3.19987 21.2891 3.77184 20.9062 4.31729C20.5234 4.86275 20.0469 5.32866 19.4766 5.71502C16.5391 7.69229 14.7109 8.92335 13.9922 9.4082C13.9141 9.46123 13.748 9.57676 13.4941 9.75479C13.2402 9.93282 13.0293 10.0768 12.8613 10.1866C12.6934 10.2965 12.4902 10.4196 12.252 10.5559C12.0137 10.6923 11.7891 10.7946 11.5781 10.8627C11.3672 10.9309 11.1719 10.965 10.9922 10.965H10.9805H10.9688C10.7891 10.965 10.5938 10.9309 10.3828 10.8627C10.1719 10.7946 9.94727 10.6923 9.70898 10.5559C9.4707 10.4196 9.26758 10.2965 9.09961 10.1866C8.93164 10.0768 8.7207 9.93282 8.4668 9.75479C8.21289 9.57676 8.04688 9.46123 7.96875 9.4082C7.25781 8.92335 6.23438 8.23207 4.89844 7.33434C3.5625 6.43661 2.76172 5.89684 2.49609 5.71502C2.01172 5.39684 1.55469 4.95934 1.125 4.40252C0.695312 3.8457 0.480469 3.32866 0.480469 2.85138C0.480469 2.26048 0.642578 1.76805 0.966797 1.37411C1.29102 0.980172 1.75391 0.783203 2.35547 0.783203H19.6055C20.1133 0.783203 20.5527 0.961233 20.9238 1.31729C21.2949 1.67335 21.4805 2.10138 21.4805 2.60138Z" fill="#495057"/>
</g>
<defs>
<clipPath id="clip0_5_1377">
<rect width="21" height="17" fill="white" transform="matrix(1 0 0 -1 0 17)"/>
</clipPath>
</defs>
</svg>
