<svg width="14" height="17" viewBox="0 0 14 17" fill="none" xmlns="http://www.w3.org/2000/svg">
<g clip-path="url(#clip0_5_1385)">
<path d="M4.11464 7.64011H9.91056V5.46664C9.91056 4.66668 9.62755 3.9837 9.06154 3.41769C8.49554 2.85168 7.81255 2.56868 7.0126 2.56868C6.21264 2.56868 5.52966 2.85168 4.96365 3.41769C4.39764 3.9837 4.11464 4.66668 4.11464 5.46664V7.64011ZM13.533 8.72684V15.2472C13.533 15.5491 13.4274 15.8057 13.216 16.017C13.0047 16.2283 12.7481 16.334 12.4463 16.334H1.57892C1.27705 16.334 1.02046 16.2283 0.809152 16.017C0.597842 15.8057 0.492188 15.5491 0.492188 15.2472V8.72684C0.492188 8.42497 0.597842 8.16838 0.809152 7.95707C1.02046 7.74576 1.27705 7.64011 1.57892 7.64011H1.94117V5.46664C1.94117 4.07803 2.43925 2.88564 3.43543 1.88947C4.4316 0.893295 5.62399 0.395208 7.0126 0.395208C8.4012 0.395208 9.59359 0.893295 10.5898 1.88947C11.5859 2.88564 12.084 4.07803 12.084 5.46664V7.64011H12.4463C12.7481 7.64011 13.0047 7.74576 13.216 7.95707C13.4274 8.16838 13.533 8.42497 13.533 8.72684Z" fill="#495057"/>
</g>
<defs>
<clipPath id="clip0_5_1385">
<rect width="14" height="17" fill="white" transform="matrix(1 0 0 -1 0 17)"/>
</clipPath>
</defs>
</svg>
