<svg width="16" height="21" viewBox="0 0 16 21" fill="none" xmlns="http://www.w3.org/2000/svg">
<path d="M13.75 0.900391C14.0455 0.900391 14.3381 0.958589 14.611 1.07166C14.884 1.18473 15.1321 1.35047 15.341 1.5594C15.5499 1.76833 15.7157 2.01637 15.8287 2.28935C15.9418 2.56234 16 2.85492 16 3.15039V18.6554C16 18.9509 15.9418 19.2434 15.8287 19.5164C15.7157 19.7894 15.5499 20.0375 15.341 20.2464C15.1321 20.4553 14.884 20.621 14.611 20.7341C14.3381 20.8472 14.0455 20.9054 13.75 20.9054H2.25C1.95453 20.9054 1.66194 20.8472 1.38896 20.7341C1.11598 20.621 0.867942 20.4553 0.65901 20.2464C0.450078 20.0375 0.284344 19.7894 0.171271 19.5164C0.0581978 19.2434 1.69987e-08 18.9509 1.69987e-08 18.6554V3.15039C-7.00219e-05 2.58026 0.216295 2.03137 0.605369 1.61464C0.994443 1.1979 1.52721 0.944413 2.096 0.905391L2.25 0.900391H13.75ZM14.5 14.9004H1.5V18.6554C1.5 19.0694 1.836 19.4054 2.25 19.4054H13.75C13.9489 19.4054 14.1397 19.3264 14.2803 19.1857C14.421 19.0451 14.5 18.8543 14.5 18.6554V14.9004ZM3.751 16.4004H12.25C12.44 16.4004 12.6229 16.4726 12.7618 16.6024C12.9006 16.7321 12.9851 16.9097 12.998 17.0993C13.011 17.2889 12.9515 17.4763 12.8316 17.6237C12.7117 17.7711 12.5402 17.8675 12.352 17.8934L12.25 17.9004H3.751C3.56106 17.9001 3.37832 17.8277 3.23966 17.6979C3.101 17.5681 3.01675 17.3905 3.00393 17.201C2.99111 17.0115 3.05067 16.8242 3.17059 16.6769C3.2905 16.5296 3.46183 16.4333 3.65 16.4074L3.751 16.4004ZM13.75 2.40039H2.25L2.148 2.40739C1.96845 2.43204 1.80389 2.52087 1.68477 2.65746C1.56564 2.79405 1.50001 2.96915 1.5 3.15039V13.4004H4V11.1464C4 10.4984 4.492 9.96639 5.122 9.90239L5.25 9.89539H10.75C11.397 9.89539 11.93 10.3874 11.993 11.0184L12 11.1454V13.4004H14.5V3.15039C14.5 2.95148 14.421 2.76071 14.2803 2.62006C14.1397 2.47941 13.9489 2.40039 13.75 2.40039ZM8 3.89639C8.66304 3.89639 9.29893 4.15978 9.76777 4.62862C10.2366 5.09746 10.5 5.73335 10.5 6.39639C10.5 7.05943 10.2366 7.69532 9.76777 8.16416C9.29893 8.633 8.66304 8.89639 8 8.89639C7.33696 8.89639 6.70107 8.633 6.23223 8.16416C5.76339 7.69532 5.5 7.05943 5.5 6.39639C5.5 5.73335 5.76339 5.09746 6.23223 4.62862C6.70107 4.15978 7.33696 3.89639 8 3.89639Z" fill="#495057"/>
</svg>
