<svg width="17" height="17" viewBox="0 0 17 17" fill="none" xmlns="http://www.w3.org/2000/svg">
<path d="M17 2.68421V4.47368H14.3158V7.15789H12.5263V4.47368H9.8421V2.68421H12.5263V0H14.3158V2.68421H17ZM14.3158 15.2105H1.78947V2.68421H7.15789V0.894737H1.78947C0.805263 0.894737 0 1.7 0 2.68421V15.2105C0 16.1947 0.805263 17 1.78947 17H14.3158C15.3 17 16.1053 16.1947 16.1053 15.2105V9.8421H14.3158V15.2105ZM10.7368 9.8421V13.4211H12.5263V9.8421H10.7368ZM7.15789 13.4211H8.94737V6.26316H7.15789V13.4211ZM5.36842 13.4211V8.05263H3.57895V13.4211H5.36842Z" fill="#818093"/>
</svg>
