<svg width="22" height="20" viewBox="0 0 22 20" fill="none" xmlns="http://www.w3.org/2000/svg">
<g clip-path="url(#clip0_0_243)">
<path d="M10.4699 1.84099C10.6106 1.70054 10.8012 1.62165 10.9999 1.62165C11.1987 1.62165 11.3893 1.70054 11.5299 1.84099L20.2199 10.531C20.2892 10.6026 20.3719 10.6597 20.4635 10.699C20.555 10.7382 20.6534 10.7589 20.753 10.7597C20.8526 10.7605 20.9513 10.7415 21.0435 10.7037C21.1356 10.666 21.2194 10.6102 21.2897 10.5398C21.3601 10.4693 21.4158 10.3856 21.4534 10.2934C21.4911 10.2012 21.51 10.1024 21.5091 10.0028C21.5082 9.90325 21.4875 9.80484 21.4481 9.71336C21.4088 9.62187 21.3516 9.53914 21.2799 9.46999L12.5909 0.779991C12.382 0.571056 12.134 0.40532 11.861 0.292245C11.588 0.179171 11.2954 0.120972 10.9999 0.120972C10.7045 0.120972 10.4119 0.179171 10.1389 0.292245C9.86591 0.40532 9.61788 0.571056 9.40894 0.779991L0.718943 9.46999C0.647344 9.53921 0.590247 9.622 0.550984 9.71352C0.511721 9.80504 0.491078 9.90346 0.49026 10.003C0.489442 10.1026 0.508465 10.2014 0.546219 10.2935C0.583973 10.3857 0.639702 10.4694 0.710154 10.5398C0.780607 10.6102 0.864372 10.6658 0.956561 10.7035C1.04875 10.7412 1.14752 10.7601 1.2471 10.7592C1.34669 10.7583 1.44509 10.7375 1.53658 10.6982C1.62806 10.6588 1.71079 10.6017 1.77994 10.53L10.4699 1.84099Z" fill="#999999"/>
<path d="M11 3.43201L19.159 11.591C19.189 11.621 19.219 11.649 19.25 11.677V17.875C19.25 18.91 18.41 19.75 17.375 19.75H14C13.8011 19.75 13.6103 19.671 13.4697 19.5303C13.329 19.3897 13.25 19.1989 13.25 19V14.5C13.25 14.3011 13.171 14.1103 13.0303 13.9697C12.8897 13.829 12.6989 13.75 12.5 13.75H9.5C9.30109 13.75 9.11032 13.829 8.96967 13.9697C8.82902 14.1103 8.75 14.3011 8.75 14.5V19C8.75 19.1989 8.67098 19.3897 8.53033 19.5303C8.38968 19.671 8.19891 19.75 8 19.75H4.625C4.12772 19.75 3.65081 19.5525 3.29917 19.2008C2.94754 18.8492 2.75 18.3723 2.75 17.875V11.677C2.78111 11.6492 2.81146 11.6205 2.841 11.591L11 3.43201Z" fill="#999999"/>
</g>
<defs>
<clipPath id="clip0_0_243">
<rect width="22" height="20" fill="white"/>
</clipPath>
</defs>
</svg>
