<svg width="22" height="18" viewBox="0 0 22 18" fill="none" xmlns="http://www.w3.org/2000/svg">
<path d="M15.176 11.4515C14.4284 11.4515 13.7912 11.1901 13.2644 10.6672C12.7384 10.1436 12.4753 9.50846 12.4753 8.76171C12.4753 8.01496 12.7367 7.37817 13.2595 6.85133C13.7832 6.3245 14.4183 6.06108 15.1651 6.06108C15.9118 6.06108 16.5486 6.32289 17.0755 6.8465C17.6023 7.3685 17.8657 8.00328 17.8657 8.75083C17.8657 9.49839 17.6039 10.1356 17.0803 10.6624C16.5583 11.1884 15.9235 11.4515 15.176 11.4515ZM8.85034 17.7723V16.4068C8.85034 16.1434 8.91599 15.8925 9.0473 15.654C9.17941 15.4164 9.35663 15.2255 9.57897 15.0813C10.424 14.5996 11.3101 14.2306 12.2373 13.9745C13.1637 13.7183 14.1412 13.5902 15.1699 13.5902C16.1986 13.5902 17.1766 13.7183 18.1038 13.9745C19.031 14.2306 19.9171 14.5996 20.7621 15.0813C20.9844 15.2263 21.1616 15.4172 21.2938 15.654C21.4251 15.8925 21.4907 16.143 21.4907 16.4056V17.7723H8.85034ZM0.694092 11.3125V10.1042H9.15242V11.3125H0.694092ZM0.694092 1.64583V0.4375H13.9858V1.64583H0.694092ZM10.1324 6.47917H0.694092V5.27083H10.8248C10.6822 5.45853 10.5525 5.64904 10.4357 5.84237C10.3189 6.03571 10.217 6.24797 10.1324 6.47917Z" fill="black" fill-opacity="0.4"/>
</svg>
