<svg width="15" height="17" viewBox="0 0 15 17" fill="none" xmlns="http://www.w3.org/2000/svg">
<g clip-path="url(#clip0_0_230)">
<path d="M7.28501 16.8558C8.2278 16.8558 8.99918 16.0844 8.99918 15.1417H5.57084C5.57084 16.0844 6.34222 16.8558 7.28501 16.8558ZM12.4275 11.7133V7.42791C12.4275 4.79666 11.0305 2.59396 8.57064 2.01114V1.42833C8.57064 0.716946 7.99639 0.1427 7.28501 0.1427C6.57363 0.1427 5.99939 0.716946 5.99939 1.42833V2.01114C3.54813 2.59396 2.14251 4.78809 2.14251 7.42791V11.7133L0.428345 13.4275V14.2846H14.1417V13.4275L12.4275 11.7133ZM10.7133 12.5704H3.85668V7.42791C3.85668 5.30234 5.15087 3.57103 7.28501 3.57103C9.41915 3.57103 10.7133 5.30234 10.7133 7.42791V12.5704Z" fill="#818093"/>
</g>
<defs>
<clipPath id="clip0_0_230">
<rect width="15" height="17" fill="white"/>
</clipPath>
</defs>
</svg>
