<svg width="20" height="21" viewBox="0 0 20 21" fill="none" xmlns="http://www.w3.org/2000/svg">
<g clip-path="url(#clip0_0_257)">
<path d="M17.1875 0C17.5568 0 17.9226 0.058198 18.2638 0.171271C18.605 0.284344 18.9151 0.450078 19.1762 0.65901C19.4374 0.867941 19.6446 1.11598 19.7859 1.38896C19.9273 1.66194 20 1.95453 20 2.25V17.755C20 18.0505 19.9273 18.3431 19.7859 18.616C19.6446 18.889 19.4374 19.1371 19.1762 19.346C18.9151 19.5549 18.605 19.7207 18.2638 19.8337C17.9226 19.9468 17.5568 20.005 17.1875 20.005H2.8125C2.44316 20.005 2.07743 19.9468 1.7362 19.8337C1.39497 19.7207 1.08493 19.5549 0.823762 19.346C0.562598 19.1371 0.35543 18.889 0.214089 18.616C0.0727472 18.3431 2.12484e-08 18.0505 2.12484e-08 17.755V2.25C-8.75273e-05 1.67987 0.270369 1.13098 0.756711 0.714247C1.24305 0.297514 1.90901 0.0440221 2.62 0.00500011L2.8125 0H17.1875ZM18.125 14H1.875V17.755C1.875 18.169 2.295 18.505 2.8125 18.505H17.1875C17.4361 18.505 17.6746 18.426 17.8504 18.2853C18.0262 18.1447 18.125 17.9539 18.125 17.755V14ZM4.68875 15.5H15.3125C15.55 15.5001 15.7787 15.5722 15.9522 15.702C16.1258 15.8317 16.2313 16.0093 16.2475 16.1989C16.2637 16.3885 16.1894 16.5759 16.0395 16.7233C15.8896 16.8707 15.6753 16.9671 15.44 16.993L15.3125 17H4.68875C4.45133 16.9997 4.22289 16.9273 4.04957 16.7975C3.87625 16.6677 3.77094 16.4901 3.75492 16.3006C3.73889 16.1111 3.81334 15.9238 3.96323 15.7765C4.11312 15.6292 4.32729 15.5329 4.5625 15.507L4.68875 15.5ZM17.1875 1.5H2.8125L2.685 1.507C2.46056 1.53165 2.25486 1.62048 2.10596 1.75707C1.95705 1.89366 1.87501 2.06876 1.875 2.25V12.5H5V10.246C5 9.598 5.615 9.066 6.4025 9.002L6.5625 8.995H13.4375C14.2463 8.995 14.9125 9.487 14.9913 10.118L15 10.245V12.5H18.125V2.25C18.125 2.05109 18.0262 1.86032 17.8504 1.71967C17.6746 1.57902 17.4361 1.5 17.1875 1.5ZM10 2.996C10.8288 2.996 11.6237 3.25939 12.2097 3.72823C12.7958 4.19707 13.125 4.83296 13.125 5.496C13.125 6.15904 12.7958 6.79493 12.2097 7.26377C11.6237 7.73261 10.8288 7.996 10 7.996C9.1712 7.996 8.37634 7.73261 7.79029 7.26377C7.20424 6.79493 6.875 6.15904 6.875 5.496C6.875 4.83296 7.20424 4.19707 7.79029 3.72823C8.37634 3.25939 9.1712 2.996 10 2.996Z" fill="black" fill-opacity="0.4"/>
</g>
<defs>
<clipPath id="clip0_0_257">
<rect width="20" height="21" fill="white"/>
</clipPath>
</defs>
</svg>
