<svg width="20" height="20" viewBox="0 0 20 20" fill="none" xmlns="http://www.w3.org/2000/svg">
<path d="M15.2629 4.17694L12.2352 0L1.10286 8.75123L0.485714 8.74467V8.75404H0V20H20V8.75404H19.0838L17.261 3.50687L15.2629 4.17694ZM17.0714 8.75404H7.52095L14.6343 6.36802L16.0838 5.91163L17.0714 8.75404ZM13.381 4.80858L6.0381 7.27145L11.8533 2.69997L13.381 4.80858ZM1.90476 16.4097V12.3424C2.30683 12.2028 2.67205 11.9764 2.97363 11.6798C3.2752 11.3832 3.5055 11.0239 3.64762 10.6284H16.3524C16.4944 11.0241 16.7246 11.3836 17.0262 11.6803C17.3278 11.9771 17.6931 12.2036 18.0952 12.3434V16.4107C17.6931 16.5504 17.3278 16.777 17.0262 17.0737C16.7246 17.3705 16.4944 17.7299 16.3524 18.1257H3.64952C3.50684 17.7299 3.27616 17.3705 2.9743 17.0736C2.67245 16.7767 2.30705 16.5499 1.90476 16.4097Z" fill="#818093"/>
</svg>
