<svg width="19" height="19" viewBox="0 0 19 19" fill="none" xmlns="http://www.w3.org/2000/svg">
<path d="M16.156 13.1623V10.1686C16.1557 9.8511 16.0294 9.5467 15.8049 9.3222C15.5804 9.09769 15.276 8.97143 14.9585 8.97111H10.1686V5.97742H11.9648C12.2823 5.9771 12.5867 5.85083 12.8112 5.62633C13.0357 5.40183 13.162 5.09743 13.1623 4.77994V2.38498C13.162 2.06749 13.0357 1.76309 12.8112 1.53858C12.5867 1.31408 12.2823 1.18782 11.9648 1.1875H7.17489C6.8574 1.18782 6.553 1.31408 6.3285 1.53858C6.104 1.76309 5.97773 2.06749 5.97742 2.38498V4.77994C5.97773 5.09743 6.104 5.40183 6.3285 5.62633C6.553 5.85083 6.8574 5.9771 7.17489 5.97742H8.97111V8.97111H4.1812C3.8637 8.97143 3.5593 9.09769 3.3348 9.3222C3.1103 9.5467 2.98404 9.8511 2.98372 10.1686V13.1623H1.1875V17.9522H5.97742V13.1623H4.1812V10.1686H8.97111V13.1623H7.17489V17.9522H11.9648V13.1623H10.1686V10.1686H14.9585V13.1623H13.1623V17.9522H17.9522V13.1623H16.156ZM7.17489 2.38498H11.9648V4.77994H7.17489V2.38498ZM4.77994 16.7547H2.38498V14.3598H4.77994V16.7547ZM10.7673 16.7547H8.37237V14.3598H10.7673V16.7547ZM16.7547 16.7547H14.3598V14.3598H16.7547V16.7547Z" fill="#818093"/>
</svg>
