<svg width="17" height="17" viewBox="0 0 17 17" fill="none" xmlns="http://www.w3.org/2000/svg">
<path d="M14.4046 9.09066C14.4389 8.83354 14.4561 8.56785 14.4561 8.28501C14.4561 8.01074 14.4389 7.73647 14.3961 7.47935L16.1359 6.12516C16.2902 6.00517 16.3331 5.77375 16.2388 5.60234L14.5932 2.75682C14.4903 2.56826 14.2761 2.50827 14.0875 2.56826L12.0391 3.39106C11.6105 3.06537 11.1563 2.7911 10.6506 2.5854L10.3421 0.408411C10.3078 0.202711 10.1364 0.0570068 9.93066 0.0570068H6.63946C6.43376 0.0570068 6.27092 0.202711 6.23663 0.408411L5.92808 2.5854C5.4224 2.7911 4.95958 3.07394 4.53961 3.39106L2.49118 2.56826C2.30262 2.49969 2.08835 2.56826 1.9855 2.75682L0.348469 5.60234C0.245619 5.78232 0.279902 6.00517 0.451319 6.12516L2.1912 7.47935C2.14834 7.73647 2.11406 8.01931 2.11406 8.28501C2.11406 8.5507 2.1312 8.83354 2.17406 9.09066L0.434177 10.4449C0.279902 10.5648 0.237048 10.7963 0.331327 10.9677L1.97693 13.8132C2.07978 14.0018 2.29405 14.0617 2.48261 14.0018L4.53104 13.179C4.95958 13.5046 5.41383 13.7789 5.91951 13.9846L6.22806 16.1616C6.27092 16.3673 6.43376 16.513 6.63946 16.513H9.93066C10.1364 16.513 10.3078 16.3673 10.3335 16.1616L10.642 13.9846C11.1477 13.7789 11.6105 13.5046 12.0305 13.179L14.0789 14.0018C14.2675 14.0703 14.4818 14.0018 14.5846 13.8132L16.2302 10.9677C16.3331 10.7791 16.2902 10.5648 16.1274 10.4449L14.4046 9.09066ZM8.28506 11.3705C6.58804 11.3705 5.19956 9.98203 5.19956 8.28501C5.19956 6.58798 6.58804 5.19951 8.28506 5.19951C9.98209 5.19951 11.3706 6.58798 11.3706 8.28501C11.3706 9.98203 9.98209 11.3705 8.28506 11.3705Z" fill="#818093"/>
</svg>
