<svg width="26" height="25" viewBox="0 0 26 25" fill="none" xmlns="http://www.w3.org/2000/svg">
<path d="M8 18C8.33152 18 8.64946 17.8683 8.88388 17.6339C9.1183 17.3995 9.25 17.0815 9.25 16.75C9.25 16.4185 9.1183 16.1005 8.88388 15.8661C8.64946 15.6317 8.33152 15.5 8 15.5C7.66848 15.5 7.35054 15.6317 7.11612 15.8661C6.8817 16.1005 6.75 16.4185 6.75 16.75C6.75 17.0815 6.8817 17.3995 7.11612 17.6339C7.35054 17.8683 7.66848 18 8 18Z" fill="#011738"/>
<path d="M19.25 16.75C19.25 17.0815 19.1183 17.3995 18.8839 17.6339C18.6495 17.8683 18.3315 18 18 18C17.6685 18 17.3505 17.8683 17.1161 17.6339C16.8817 17.3995 16.75 17.0815 16.75 16.75C16.75 16.4185 16.8817 16.1005 17.1161 15.8661C17.3505 15.6317 17.6685 15.5 18 15.5C18.3315 15.5 18.6495 15.6317 18.8839 15.8661C19.1183 16.1005 19.25 16.4185 19.25 16.75Z" fill="#011738"/>
<path d="M11.4375 4.25C11.1889 4.25 10.9504 4.34877 10.7746 4.52459C10.5988 4.7004 10.5 4.93886 10.5 5.1875C10.5 5.43614 10.5988 5.6746 10.7746 5.85041C10.9504 6.02623 11.1889 6.125 11.4375 6.125H14.5625C14.8111 6.125 15.0496 6.02623 15.2254 5.85041C15.4012 5.6746 15.5 5.43614 15.5 5.1875C15.5 4.93886 15.4012 4.7004 15.2254 4.52459C15.0496 4.34877 14.8111 4.25 14.5625 4.25H11.4375Z" fill="#011738"/>
<path d="M7.6875 0.5C6.4443 0.5 5.25201 0.99386 4.37294 1.87294C3.49386 2.75201 3 3.9443 3 5.1875V9.875H1.4375C1.18886 9.875 0.950403 9.97377 0.774587 10.1496C0.598772 10.3254 0.5 10.5639 0.5 10.8125C0.5 11.0611 0.598772 11.2996 0.774587 11.4754C0.950403 11.6512 1.18886 11.75 1.4375 11.75H3V22.6875C3 23.895 3.97875 24.875 5.1875 24.875H7.0625C7.64266 24.875 8.19906 24.6445 8.6093 24.2343C9.01953 23.8241 9.25 23.2677 9.25 22.6875V21.125H16.75V22.6875C16.75 23.895 17.73 24.875 18.9375 24.875H20.8125C21.3927 24.875 21.9491 24.6445 22.3593 24.2343C22.7695 23.8241 23 23.2677 23 22.6875V11.75H24.5337C24.7824 11.75 25.0208 11.6512 25.1967 11.4754C25.3725 11.2996 25.4712 11.0611 25.4712 10.8125C25.4712 10.5639 25.3725 10.3254 25.1967 10.1496C25.0208 9.97377 24.7824 9.875 24.5337 9.875H23V5.1875C23 3.9443 22.5061 2.75201 21.6271 1.87294C20.748 0.99386 19.5557 0.5 18.3125 0.5H7.6875ZM21.125 21.125V22.6875C21.125 22.7704 21.0921 22.8499 21.0335 22.9085C20.9749 22.9671 20.8954 23 20.8125 23H18.9375C18.8546 23 18.7751 22.9671 18.7165 22.9085C18.6579 22.8499 18.625 22.7704 18.625 22.6875V21.125H21.125ZM21.125 19.25H4.875V14.25H21.125V19.25ZM4.875 22.6875V21.125H7.375V22.6875C7.375 22.7704 7.34208 22.8499 7.28347 22.9085C7.22487 22.9671 7.14538 23 7.0625 23H5.1875C5.10462 23 5.02513 22.9671 4.96653 22.9085C4.90792 22.8499 4.875 22.7704 4.875 22.6875ZM4.875 5.1875C4.875 4.44158 5.17132 3.72621 5.69876 3.19876C6.22621 2.67132 6.94158 2.375 7.6875 2.375H18.3125C19.0584 2.375 19.7738 2.67132 20.3012 3.19876C20.8287 3.72621 21.125 4.44158 21.125 5.1875V12.375H4.875V5.1875Z" fill="#011738"/>
</svg>
