<svg width="22" height="23" viewBox="0 0 22 23" fill="none" xmlns="http://www.w3.org/2000/svg">
<path d="M19.25 19.75H2.75C2.02065 19.75 1.32118 19.4603 0.805456 18.9445C0.289731 18.4288 0 17.7293 0 17V6C0 5.27065 0.289731 4.57118 0.805456 4.05546C1.32118 3.53973 2.02065 3.25 2.75 3.25H19.25C19.9793 3.25 20.6788 3.53973 21.1945 4.05546C21.7103 4.57118 22 5.27065 22 6V17C22 17.7293 21.7103 18.4288 21.1945 18.9445C20.6788 19.4603 19.9793 19.75 19.25 19.75ZM2.75 4.625C2.38533 4.625 2.03559 4.76987 1.77773 5.02773C1.51987 5.28559 1.375 5.63533 1.375 6V17C1.375 17.3647 1.51987 17.7144 1.77773 17.9723C2.03559 18.2301 2.38533 18.375 2.75 18.375H19.25C19.6147 18.375 19.9644 18.2301 20.2223 17.9723C20.4801 17.7144 20.625 17.3647 20.625 17V6C20.625 5.63533 20.4801 5.28559 20.2223 5.02773C19.9644 4.76987 19.6147 4.625 19.25 4.625H2.75Z" fill="white"/>
<path d="M11.0012 12.8753C10.8471 12.8752 10.6975 12.8234 10.5764 12.7281L0.951356 5.16565C0.878688 5.11046 0.817735 5.04135 0.77205 4.96236C0.726366 4.88336 0.696864 4.79607 0.685264 4.70556C0.673665 4.61504 0.6802 4.52313 0.704489 4.43517C0.728779 4.34721 0.770335 4.26496 0.826737 4.19323C0.883138 4.1215 0.953256 4.06171 1.033 4.01735C1.11275 3.97299 1.20053 3.94496 1.29122 3.93487C1.38191 3.92479 1.47371 3.93286 1.56125 3.95862C1.64879 3.98438 1.73033 4.02731 1.80111 4.0849L11.0012 11.3133L20.2014 4.0849C20.2721 4.02731 20.3537 3.98438 20.4412 3.95862C20.5288 3.93286 20.6206 3.92479 20.7112 3.93487C20.8019 3.94496 20.8897 3.97299 20.9695 4.01735C21.0492 4.06171 21.1193 4.1215 21.1757 4.19323C21.2321 4.26496 21.2737 4.34721 21.298 4.43517C21.3223 4.52313 21.3288 4.61504 21.3172 4.70556C21.3056 4.79607 21.2761 4.88336 21.2304 4.96236C21.1847 5.04135 21.1238 5.11046 21.0511 5.16565L11.4261 12.7281C11.305 12.8234 11.1553 12.8752 11.0012 12.8753Z" fill="white"/>
<path d="M1.37485 19.0628C1.2389 19.0628 1.10601 19.0225 0.992976 18.9469C0.879944 18.8714 0.791848 18.764 0.739825 18.6384C0.687802 18.5128 0.674187 18.3746 0.700702 18.2413C0.727218 18.1079 0.792672 17.9854 0.888791 17.8893L8.45129 10.3268C8.58096 10.2015 8.75462 10.1322 8.93488 10.1338C9.11514 10.1354 9.28757 10.2077 9.41504 10.3352C9.54251 10.4626 9.61481 10.6351 9.61638 10.8153C9.61795 10.9956 9.54865 11.1692 9.42342 11.2989L1.86092 18.8614C1.73201 18.9903 1.55718 19.0628 1.37485 19.0628Z" fill="white"/>
<path d="M20.6244 19.0628C20.442 19.0628 20.2672 18.9903 20.1383 18.8614L12.5758 11.2989C12.4506 11.1692 12.3813 10.9956 12.3828 10.8153C12.3844 10.6351 12.4567 10.4626 12.5842 10.3352C12.7116 10.2077 12.8841 10.1354 13.0643 10.1338C13.2446 10.1322 13.4183 10.2015 13.5479 10.3268L21.1104 17.8893C21.2065 17.9854 21.272 18.1079 21.2985 18.2413C21.325 18.3746 21.3114 18.5128 21.2594 18.6384C21.2074 18.764 21.1193 18.8714 21.0062 18.9469C20.8932 19.0225 20.7603 19.0628 20.6244 19.0628Z" fill="white"/>
</svg>
