<svg width="22" height="22" viewBox="0 0 22 22" fill="none" xmlns="http://www.w3.org/2000/svg">
<path d="M21.5448 15.8334L18.2488 12.5384C17.9559 12.2447 17.5658 12.0832 17.1509 12.0832C17.1509 12.0832 17.1501 12.0832 17.1493 12.0832C16.7344 12.0832 16.3444 12.2455 16.0514 12.5384L13.8541 14.735L7.26121 8.14426L9.45857 5.9476C10.0646 5.34174 10.0646 4.35526 9.45779 3.74939L6.16098 0.454401C5.86805 0.161565 5.47799 0 5.06308 0H5.0623C4.6466 0 4.25655 0.162342 3.96362 0.455955L0.666805 3.75172C0.566572 3.85115 -0.302115 4.79102 0.110472 6.85641C0.596875 9.28687 2.63262 12.3084 6.16098 15.8357C11.2107 20.8838 14.3956 22.0008 16.2255 22.0008C17.492 22.0008 18.1105 21.4656 18.2488 21.3273L21.5448 18.0323C21.8385 17.7387 22.0009 17.348 22.0001 16.9325C22.0001 16.5177 21.8385 16.127 21.5448 15.8334ZM17.1501 20.2282C17.1283 20.25 14.5013 21.9751 7.25966 14.7366C-0.138168 7.34188 1.76859 4.84927 1.76548 4.85005L5.0623 1.55351L8.35911 4.85005L5.61242 7.59588C5.30861 7.89959 5.30861 8.3905 5.61242 8.69421L13.3039 16.3833C13.6078 16.687 14.0988 16.687 14.4026 16.3833L17.1493 13.6367L20.4461 16.9332L17.1501 20.2282Z" fill="white"/>
</svg>
