<svg width="21" height="21" viewBox="0 0 21 21" fill="none" xmlns="http://www.w3.org/2000/svg">
<path d="M10.4987 20.9163C4.74557 20.9163 0.0820312 16.2528 0.0820312 10.4997C0.0820312 4.74655 4.74557 0.0830078 10.4987 0.0830078C16.2518 0.0830078 20.9154 4.74655 20.9154 10.4997C20.9091 16.2497 16.2487 20.9101 10.4987 20.9163ZM10.4987 2.16634C8.85052 2.16634 7.23936 2.65508 5.86895 3.57076C4.49854 4.48644 3.43043 5.78793 2.7997 7.31065C2.16897 8.83336 2.00394 10.5089 2.32549 12.1254C2.64703 13.7419 3.4407 15.2268 4.60614 16.3922C5.77158 17.5577 7.25644 18.3513 8.87295 18.6729C10.4895 18.9944 12.165 18.8294 13.6877 18.1987C15.2104 17.5679 16.5119 16.4998 17.4276 15.1294C18.3433 13.759 18.832 12.1479 18.832 10.4997C18.8296 8.2903 17.9508 6.17212 16.3885 4.60986C14.8262 3.04759 12.7081 2.16882 10.4987 2.16634ZM15.707 11.5413H9.45703V5.29134H11.5404V9.45801H15.707V11.5413Z" fill="#011738"/>
</svg>
