<svg width="22" height="14" viewBox="0 0 22 14" fill="none" xmlns="http://www.w3.org/2000/svg">
<path fill-rule="evenodd" clip-rule="evenodd" d="M21.4958 1.45591C21.648 0.955414 21.4958 0.586914 20.7671 0.586914H18.3608C17.7485 0.586914 17.4662 0.904997 17.3131 1.25608C17.3131 1.25608 16.0893 4.18575 14.3559 6.08875C13.7949 6.64058 13.5401 6.81566 13.2339 6.81566C13.0808 6.81566 12.8507 6.64058 12.8507 6.13916V1.45591C12.8507 0.854581 12.6821 0.586914 12.1724 0.586914H8.38842C8.00617 0.586914 7.77608 0.865581 7.77608 1.1305C7.77608 1.69975 8.64325 1.83175 8.73217 3.43408V6.91558C8.73217 7.67916 8.59192 7.81758 8.28575 7.81758C7.46992 7.81758 5.48533 4.87416 4.30742 1.50633C4.07917 0.850914 3.84817 0.586914 3.23308 0.586914H0.825C0.1375 0.586914 0 0.904997 0 1.25608C0 1.88125 0.815833 4.98691 3.79958 9.0945C5.78875 11.8995 8.58917 13.4202 11.1403 13.4202C12.6702 13.4202 12.859 13.0829 12.859 12.5008V10.3806C12.859 9.705 13.0038 9.57025 13.4888 9.57025C13.8463 9.57025 14.4577 9.74625 15.8858 11.0983C17.5175 12.7016 17.7861 13.4202 18.7046 13.4202H21.1108C21.7983 13.4202 22.143 13.0829 21.945 12.4156C21.7268 11.7519 20.9477 10.7885 19.9146 9.64541C19.3536 8.99458 18.5121 8.29333 18.2563 7.94225C17.8998 7.49216 18.0015 7.29141 18.2563 6.89083C18.2563 6.89083 21.1897 2.83366 21.4949 1.45591H21.4958Z" fill="white"/>
</svg>
